# xmcd CD database file
#
# Track frame offsets:
#	150
#	26745
#	54827
#	75060
#
# Disc length: 1197 seconds
#
# Revision: 1
# Processed by: cddbd v1.5PL3 Copyright (c) Steve Scherf et al.
# Submitted via: CDex 1.51
#
DISCID=1c04ab04
DTITLE=Jeff Oster - At Last
DYEAR=2004
DGENRE=New Age
TTITLE0=Matt's Mood
TTITLE1=Big Sur
TTITLE2=Haleakala
TTITLE3=At Last
EXTD=YEAR: 2004
EXTT0=
EXTT1=
EXTT2=
EXTT3=
PLAYORDER=
